<svg xmlns="http://www.w3.org/2000/svg" xmlns:xlink="http://www.w3.org/1999/xlink" version="1.1" width="1080" height="1080" viewBox="0 0 1080 1080" xml:space="preserve">
<desc>Created with Fabric.js 3.5.0</desc>
<defs>
</defs>
<rect x="0" y="0" width="100%" height="100%" fill="#ffffff"/>
<g transform="matrix(53.3333 0 0 53.3333 539.9998 539.9998)" id="446578">
<path style="stroke: none; stroke-width: 1; stroke-dasharray: none; stroke-linecap: butt; stroke-dashoffset: 0; stroke-linejoin: miter; stroke-miterlimit: 4; is-custom-font: none; font-file-url: none; fill: rgb(0,0,0); fill-rule: nonzero; opacity: 1;" vector-effect="non-scaling-stroke" transform=" translate(-7.5001, -7.5)" d="M 6.43943 0.853525 C 7.02522 0.267739 7.97497 0.267737 8.56075 0.853524 L 14.1465 6.43931 C 14.7323 7.0251 14.7323 7.97484 14.1465 8.56063 L 8.56075 14.1464 C 7.97497 14.7322 7.02522 14.7322 6.43943 14.1464 L 0.853647 8.56063 C 0.267861 7.97485 0.267859 7.0251 0.853646 6.43931 L 4.79293 2.50003 L 6.14619 3.85329 C 6.05248 4.04911 6 4.26843 6 4.5 C 6 5.15311 6.4174 5.70873 7 5.91465 V 9.08535 C 6.4174 9.29127 6 9.84689 6 10.5 C 6 11.3284 6.67157 12 7.5 12 C 8.32843 12 9 11.3284 9 10.5 C 9 9.84689 8.5826 9.29127 8 9.08535 V 5.91465 C 8.05018 5.89691 8.09914 5.87658 8.14671 5.85381 L 9.14618 6.85329 C 9.05248 7.04911 9 7.26843 9 7.5 C 9 8.32843 9.67157 9 10.5 9 C 11.3284 9 12 8.32843 12 7.5 C 12 6.67157 11.3284 6 10.5 6 C 10.2684 6 10.0491 6.05248 9.85329 6.14619 L 8.85382 5.14671 C 8.94752 4.95089 9 4.73157 9 4.5 C 9 3.67157 8.32843 3 7.5 3 C 7.26843 3 7.04911 3.05248 6.85329 3.14619 L 5.50003 1.79293 L 6.43943 0.853525 Z" stroke-linecap="round"/>
</g>
</svg>