<svg xmlns="http://www.w3.org/2000/svg" xmlns:xlink="http://www.w3.org/1999/xlink" version="1.1" width="1000" height="1000" viewBox="0 0 1000 1000" xml:space="preserve">
<desc>Created with Fabric.js 3.5.0</desc>
<defs>
</defs>
<rect x="0" y="0" width="100%" height="100%" fill="#ffffff"/>
<g transform="matrix(1.1375 0 0 1.1375 500 500)" id="38733">
<g style="" vector-effect="non-scaling-stroke">
		<g transform="matrix(25 0 0 25 0 0.0058)">
<path style="stroke: none; stroke-width: 1; stroke-dasharray: none; stroke-linecap: butt; stroke-dashoffset: 0; stroke-linejoin: miter; stroke-miterlimit: 4; is-custom-font: none; font-file-url: none; fill: rgb(68,153,221); fill-rule: nonzero; opacity: 1;" transform=" translate(-16, -16.0002)" d="M 2 17.55 l 7.97 -3.22 a 20.7 20.7 0 0 1 2.72 -2.95 c 0.66 -0.35 1.9 -0.16 4.17 -2.98 c 2.2 -2.75 2.9 -5.1 3.93 -5.1 c 1.63 0 2.83 3.52 4.65 8.85 A 115.629 115.629 0 0 0 30 24.12 c -1.9 -1.77 -3.52 -3.68 -5.37 -3.63 c -1.72 0.04 -3.63 2.08 -5.72 4.7 c -1.66 2.1 -3.86 3.54 -4.72 3.51 c 0 0 -2.22 -6.28 -4.08 -7.3 a 2.641 2.641 0 0 0 -2.39 0.2 L 2 17.54 Z" stroke-linecap="round"/>
</g>
		<g transform="matrix(25 0 0 25 -27.875 -140.5)">
<linearGradient id="SVGID_5" gradientUnits="userSpaceOnUse" gradientTransform="matrix(1 0 0 -1 0 32)" x1="16.803" y1="16.631" x2="15.013" y2="22.411">
<stop offset="0%" style="stop-color:rgb(85,17,34);stop-opacity: 1"/>
<stop offset="23%" style="stop-color:rgb(85,34,51);stop-opacity: 1"/>
<stop offset="36%" style="stop-color:rgb(85,51,68);stop-opacity: 1"/>
<stop offset="51%" style="stop-color:rgb(102,68,85);stop-opacity: 1"/>
<stop offset="66%" style="stop-color:rgb(85,102,136);stop-opacity: 1"/>
<stop offset="84%" style="stop-color:rgb(34,153,221);stop-opacity: 1"/>
</linearGradient>
<path style="stroke: none; stroke-width: 1; stroke-dasharray: none; stroke-linecap: butt; stroke-dashoffset: 0; stroke-linejoin: miter; stroke-miterlimit: 4; is-custom-font: none; font-file-url: none; fill: url(#SVGID_5); fill-rule: nonzero; opacity: 1;" transform=" translate(-14.885, -10.38)" d="M 19.8 4.02 c -0.67 0.9 -1.48 2.55 -2.94 4.38 c -2.27 2.82 -3.5 2.63 -4.17 2.98 a 19.674 19.674 0 0 0 -2.72 2.95 l 3.3 2.41 c 2.8 -3.82 4.3 -7.96 5.47 -10.64 A 13.579 13.579 0 0 1 19.8 4.02 Z" stroke-linecap="round"/>
</g>
		<g transform="matrix(25 0 0 25 88.5 0)">
<linearGradient id="SVGID_6" gradientUnits="userSpaceOnUse" gradientTransform="matrix(1 0 0 1 0 0)" x1="29.71" y1="18.983" x2="11.71" y2="14.563">
<stop offset="8.1%" style="stop-color:rgb(204,51,51);stop-opacity: 1"/>
<stop offset="18.9%" style="stop-color:rgb(222,82,57);stop-opacity: 1"/>
<stop offset="31.3%" style="stop-color:rgb(240,110,62);stop-opacity: 1"/>
<stop offset="42.1%" style="stop-color:rgb(250,128,66);stop-opacity: 1"/>
<stop offset="50%" style="stop-color:rgb(254,134,67);stop-opacity: 1"/>
<stop offset="57.99999999999999%" style="stop-color:rgb(250,127,66);stop-opacity: 1"/>
<stop offset="69.6%" style="stop-color:rgb(239,108,62);stop-opacity: 1"/>
<stop offset="83.3%" style="stop-color:rgb(220,76,55);stop-opacity: 1"/>
<stop offset="91.60000000000001%" style="stop-color:rgb(207,54,51);stop-opacity: 1"/>
</linearGradient>
<path style="stroke: none; stroke-width: 1; stroke-dasharray: none; stroke-linecap: butt; stroke-dashoffset: 0; stroke-linejoin: miter; stroke-miterlimit: 4; is-custom-font: none; font-file-url: none; fill: url(#SVGID_6); fill-rule: nonzero; opacity: 1;" transform=" translate(-19.54, -16)" d="M 20.8 3.3 c -2.18 0 -3.67 11.48 -11.72 17.89 c 2.26 -0.37 4.22 5.24 5.12 7.51 c 4 -0.68 7.2 -8.33 10.43 -8.21 c 1.85 0.07 3.47 1.86 5.37 3.63 C 25.66 15 23.63 3.3 20.8 3.3 Z" stroke-linecap="round"/>
</g>
</g>
</g>
</svg>