<svg xmlns="http://www.w3.org/2000/svg" xmlns:xlink="http://www.w3.org/1999/xlink" version="1.1" width="1000" height="1000" viewBox="0 0 1000 1000" xml:space="preserve">
<desc>Created with Fabric.js 3.5.0</desc>
<defs>
</defs>
<rect x="0" y="0" width="100%" height="100%" fill="#ffffff"/>
<g transform="matrix(37.5564 0 0 37.5564 499.9995 499.9997)" id="725209">
<path style="stroke: none; stroke-width: 1; stroke-dasharray: none; stroke-linecap: butt; stroke-dashoffset: 0; stroke-linejoin: miter; stroke-miterlimit: 4; is-custom-font: none; font-file-url: none; fill: rgb(0,0,0); fill-rule: nonzero; opacity: 1;" vector-effect="non-scaling-stroke" transform=" translate(-12, -12.0002)" d="M 9.176 4.469 a 0.817 0.817 0 0 0 -0.768 0.816 v 7.055 a 0.816 0.816 0 0 0 1.182 0.73 l 7.058 -3.527 a 0.818 0.818 0 0 0 0 -1.463 L 9.59 4.553 a 0.808 0.808 0 0 0 -0.414 -0.084 z m 1.918 3.107 h 0.638 v 0.916 h 0.916 v 0.639 h -0.916 v 0.918 h -0.638 V 9.13 h -0.918 v -0.639 h 0.918 v -0.916 z m -4.752 7.51 v 0.367 h 0.262 c 0.086 0 0.136 0.05 0.136 0.137 v 3.869 h 0.41 v -0.273 a 2.6 2.6 0 0 0 -0.011 -0.256 h 0.011 s 0.281 0.603 1.028 0.603 c 0.82 0 1.41 -0.646 1.41 -1.635 c 0 -0.97 -0.522 -1.642 -1.361 -1.642 c -0.802 0 -1.065 0.598 -1.065 0.598 H 7.15 s 0.012 -0.113 0.012 -0.256 v -1.131 c 0 -0.267 -0.112 -0.381 -0.379 -0.381 h -0.441 z m 2.855 0 v 0.387 h 0.063 c 0.118 0 0.18 0.018 0.224 0.136 l 1.436 3.85 h 0.467 l 1.437 -3.85 c 0.044 -0.118 0.105 -0.136 0.223 -0.136 h 0.834 v 3.601 h -0.41 v 0.385 h 1.25 v -0.385 h -0.418 v -3.601 h 0.418 v -0.387 h -1.805 c -0.31 0 -0.404 0.056 -0.516 0.361 l -1.076 2.942 c -0.08 0.223 -0.168 0.566 -0.168 0.566 h -0.011 s -0.088 -0.343 -0.168 -0.566 L 9.9 15.447 c -0.105 -0.298 -0.199 -0.361 -0.51 -0.361 h -0.193 z m 5.922 0 v 0.387 h 0.404 v 3.607 c 0 0.268 0.112 0.379 0.38 0.379 h 1.89 c 0.268 0 0.379 -0.111 0.379 -0.379 v -0.435 h -0.404 v 0.29 c 0 0.094 -0.05 0.14 -0.137 0.14 h -1.535 c -0.087 0 -0.137 -0.046 -0.137 -0.14 v -1.484 h 1.64 v -0.387 h -1.64 v -1.591 h 1.492 c 0.087 0 0.137 0.043 0.137 0.136 v 0.293 h 0.41 v -0.435 c 0 -0.268 -0.112 -0.381 -0.379 -0.381 h -2.5 z M 0 15.088 v 0.385 h 0.268 c 0.086 0 0.136 0.043 0.136 0.136 v 3.471 c 0 0.268 0.112 0.379 0.38 0.379 h 1.81 c 0.267 0 0.379 -0.111 0.379 -0.379 v -0.435 h -0.41 v 0.29 c 0 0.094 -0.05 0.137 -0.137 0.137 H 0.976 c -0.086 0 -0.136 -0.043 -0.136 -0.136 v -3.47 c 0 -0.267 -0.112 -0.378 -0.38 -0.378 H 0 z m 18.334 0 v 0.385 h 0.076 c 0.118 0 0.197 0.018 0.229 0.136 l 1.002 3.85 h 0.515 l 0.897 -3.047 c 0.08 -0.28 0.156 -0.64 0.156 -0.64 h 0.012 s 0.067 0.366 0.142 0.646 l 0.815 3.041 h 0.515 l 1.008 -3.85 c 0.031 -0.118 0.106 -0.136 0.23 -0.136 H 24 v -0.385 h -0.193 c -0.311 0 -0.453 0.055 -0.528 0.36 l -0.76 3.015 c -0.055 0.224 -0.1 0.467 -0.1 0.467 h -0.01 s -0.039 -0.243 -0.1 -0.467 l -0.877 -3.358 h -0.43 l -0.963 3.358 c -0.062 0.224 -0.12 0.467 -0.12 0.467 h -0.01 s -0.039 -0.243 -0.095 -0.467 l -0.757 -3.016 c -0.075 -0.304 -0.219 -0.36 -0.53 -0.36 h -0.193 z M 4.637 16.256 c -0.274 0 -1.02 0.094 -1.02 0.53 v 0.298 h 0.404 v -0.2 c 0 -0.23 0.454 -0.273 0.61 -0.273 c 0.572 0 0.808 0.23 0.808 0.883 v 0.037 h -0.173 c -0.542 0 -1.916 0.038 -1.916 1.076 c 0 0.622 0.54 0.926 1.062 0.926 a 1.11 1.11 0 0 0 1.04 -0.678 h 0.01 s -0.005 0.094 -0.005 0.23 c 0 0.256 0.106 0.374 0.373 0.374 h 0.43 v -0.367 h -0.262 c -0.087 0 -0.137 -0.044 -0.137 -0.137 v -1.498 c 0 -0.672 -0.236 -1.201 -1.224 -1.201 z m 3.527 0.387 c 0.578 0 0.988 0.49 0.988 1.255 c 0 0.796 -0.452 1.262 -1.006 1.262 c -0.671 0 -0.996 -0.628 -0.996 -1.256 c 0 -0.889 0.492 -1.261 1.014 -1.261 z m -2.906 1.224 h 0.181 v 0.143 c 0 0.54 -0.362 1.162 -0.959 1.162 c -0.466 0 -0.695 -0.298 -0.695 -0.59 c 0 -0.703 0.982 -0.715 1.473 -0.715 z" stroke-linecap="round"/>
</g>
</svg>