<svg xmlns="http://www.w3.org/2000/svg" xmlns:xlink="http://www.w3.org/1999/xlink" version="1.1" width="1000" height="1000" viewBox="0 0 1000 1000" xml:space="preserve">
<desc>Created with Fabric.js 3.5.0</desc>
<defs>
</defs>
<rect x="0" y="0" width="100%" height="100%" fill="#ffffff"/>
<g transform="matrix(1.8857 0 0 1.8859 491.3331 500.0017)" id="914375">
<path style="stroke: none; stroke-width: 1; stroke-dasharray: none; stroke-linecap: butt; stroke-dashoffset: 0; stroke-linejoin: miter; stroke-miterlimit: 4; is-custom-font: none; font-file-url: none; fill: rgb(0,0,0); fill-rule: nonzero; opacity: 1;" vector-effect="non-scaling-stroke" transform=" translate(-256.825, -255.985)" d="M 498.11 206.4 L 445.31 14.72 L 248.2 66.08 L 219 116.14 l -59.2 -0.43 L 15.54 256 L 159.82 396.32 l 59.17 -0.43 l 29.24 50 l 197.08 51.36 l 52.8 -191.62 l -30 -49.63 Z M 223.77 124.2 L 374.55 86.51 L 288 232.33 H 114.87 Z m 0 263.63 L 114.87 279.71 H 288 l 86.55 145.81 Z m 193 14 L 330.17 256 l 86.58 -145.84 L 458.56 256 Z" stroke-linecap="round"/>
</g>
</svg>