<svg xmlns="http://www.w3.org/2000/svg" xmlns:xlink="http://www.w3.org/1999/xlink" version="1.1" width="1000" height="1000" viewBox="0 0 1000 1000" xml:space="preserve">
<desc>Created with Fabric.js 3.5.0</desc>
<defs>
</defs>
<rect x="0" y="0" width="100%" height="100%" fill="#ffffff"/>
<g transform="matrix(2.2973 0 0 2.2973 499.9975 499.9976)" id="756188">
<g style="" vector-effect="non-scaling-stroke">
		<g transform="matrix(1 0 0 1 76.5 0)" id="Layer_1">
<path style="stroke: none; stroke-width: 1; stroke-dasharray: none; stroke-linecap: butt; stroke-dashoffset: 0; stroke-linejoin: miter; stroke-miterlimit: 4; is-custom-font: none; font-file-url: none; fill: rgb(0,89,156); fill-rule: nonzero; opacity: 1;" transform=" translate(-278.5, -198.0575)" d="M 351.106995 284.144501 C 353.507996 279.985504 355 275.2995 355 271.091522 v -146.069 c 0 -4.208 -1.48999 -8.892998 -3.891998 -13.052002 L 202 198.057526 L 351.106995 284.144501 z" stroke-linecap="round"/>
</g>
		<g transform="matrix(1 0 0 1 0 86.087)" id="Layer_1">
<path style="stroke: none; stroke-width: 1; stroke-dasharray: none; stroke-linecap: butt; stroke-dashoffset: 0; stroke-linejoin: miter; stroke-miterlimit: 4; is-custom-font: none; font-file-url: none; fill: rgb(0,68,130); fill-rule: nonzero; opacity: 1;" transform=" translate(-202, -284.1445)" d="M 215.25 367.0755 l 126.5 -73.033997 c 3.644012 -2.104004 6.955994 -5.737 9.356995 -9.897003 L 202 198.057526 L 52.893002 284.145508 c 2.400997 4.158997 5.714001 7.792999 9.356998 9.895996 l 126.5 73.033997 C 196.037003 371.283508 207.962997 371.283508 215.25 367.0755 z" stroke-linecap="round"/>
</g>
		<g transform="matrix(1 0 0 1 -1.946 -43.044)" id="Layer_1">
<path style="stroke: none; stroke-width: 1; stroke-dasharray: none; stroke-linecap: butt; stroke-dashoffset: 0; stroke-linejoin: miter; stroke-miterlimit: 4; is-custom-font: none; font-file-url: none; fill: rgb(101,154,210); fill-rule: nonzero; opacity: 1;" transform=" translate(-200.054, -155.0135)" d="M 351.108002 111.969513 c -2.402008 -4.159996 -5.714996 -7.792999 -9.358002 -9.897003 l -126.5 -73.033997 c -7.287003 -4.208 -19.212997 -4.208 -26.5 0 l -126.5 73.033997 C 54.961998 106.279518 49 116.607513 49 125.022514 v 146.069 c 0 4.207977 1.491001 8.893982 3.893002 13.052979 L 202 198.057526 L 351.108002 111.969513 z" stroke-linecap="round"/>
</g>
		<g transform="matrix(1 0 0 1 -6.833 0)" id="Layer_1">
<path style="stroke: none; stroke-width: 1; stroke-dasharray: none; stroke-linecap: butt; stroke-dashoffset: 0; stroke-linejoin: miter; stroke-miterlimit: 4; is-custom-font: none; font-file-url: none; fill: rgb(255,255,255); fill-rule: nonzero; opacity: 1;" transform=" translate(-195.167, -198.0575)" d="M 202 300.057495 c -56.242996 0 -102 -45.756989 -102 -101.999985 S 145.757004 96.057503 202 96.057503 c 36.291992 0 70.139008 19.529999 88.330994 50.96801 l -44.143005 25.544006 c -9.104996 -15.736008 -26.037994 -25.512009 -44.188004 -25.512009 c -28.121994 0 -51 22.878006 -51 51 c 0 28.121002 22.878006 51 51 51 c 18.151993 0 35.085007 -9.776001 44.190994 -25.514999 l 44.143005 25.542999 C 272.141998 280.52652 238.294006 300.057495 202 300.057495 z" stroke-linecap="round"/>
</g>
		<g transform="matrix(1 0 0 1 85 0)" id="Layer_1">
<polygon style="stroke: none; stroke-width: 1; stroke-dasharray: none; stroke-linecap: butt; stroke-dashoffset: 0; stroke-linejoin: miter; stroke-miterlimit: 4; is-custom-font: none; font-file-url: none; fill: rgb(255,255,255); fill-rule: nonzero; opacity: 1;" points="17,-5.667 5.666,-5.667 5.666,-17 -5.666,-17 -5.666,-5.667 -17,-5.667 -17,5.666 -5.666,5.666 -5.666,17 5.666,17 5.666,5.666 17,5.666 "/>
</g>
		<g transform="matrix(1 0 0 1 127.5 0)" id="Layer_1">
<polygon style="stroke: none; stroke-width: 1; stroke-dasharray: none; stroke-linecap: butt; stroke-dashoffset: 0; stroke-linejoin: miter; stroke-miterlimit: 4; is-custom-font: none; font-file-url: none; fill: rgb(255,255,255); fill-rule: nonzero; opacity: 1;" points="17,-5.667 5.666,-5.667 5.666,-17 -5.666,-17 -5.666,-5.667 -17,-5.667 -17,5.666 -5.666,5.666 -5.666,17 5.666,17 5.666,5.666 17,5.666 "/>
</g>
</g>
</g>
</svg>