<svg xmlns="http://www.w3.org/2000/svg" xmlns:xlink="http://www.w3.org/1999/xlink" version="1.1" width="1000" height="1000" viewBox="0 0 1000 1000" xml:space="preserve">
<desc>Created with Fabric.js 3.5.0</desc>
<defs>
</defs>
<rect x="0" y="0" width="100%" height="100%" fill="#ffffff"/>
<g transform="matrix(1 0 0 1 500 500)" id="846038">
<g style="" vector-effect="non-scaling-stroke">
		<g transform="matrix(2.9197 0 0 2.9197 -54.6185 60.5892)">
<path style="stroke: none; stroke-width: 1; stroke-dasharray: none; stroke-linecap: butt; stroke-dashoffset: 0; stroke-linejoin: miter; stroke-miterlimit: 4; is-custom-font: none; font-file-url: none; fill: rgb(229,91,45); fill-rule: nonzero; opacity: 1;" transform=" translate(-109.2935, -157.7521)" d="M 145.726081 42.0651946 L 145.726081 84.1347419 L 218.586952 126.204312 L 218.586952 84.1347419 L 145.726081 42.0651946 Z M -1.98726454e-7 84.1347419 L -1.98726454e-7 126.204312 L 36.4304238 147.234755 L 36.4304238 105.169527 L -1.98726454e-7 84.1347419 Z M 109.291294 105.169527 L 72.8608701 126.204312 L 72.8608701 252.404316 L 109.291294 273.439101 L 109.291294 189.304303 L 145.726081 210.339088 L 145.726081 168.26954 L 109.291294 147.234755 L 109.291294 105.169527 Z" stroke-linecap="round"/>
</g>
		<g transform="matrix(2.9197 0 0 2.9197 51.754 60.5892)">
<path style="stroke: none; stroke-width: 1; stroke-dasharray: none; stroke-linecap: butt; stroke-dashoffset: 0; stroke-linejoin: miter; stroke-miterlimit: 4; is-custom-font: none; font-file-url: none; fill: rgb(237,142,36); fill-rule: nonzero; opacity: 1;" transform=" translate(-145.7261, -157.7521)" d="M 145.726081 42.0651946 L 36.4304238 105.169527 L 36.4304238 147.234755 L 109.291294 105.169527 L 109.291294 147.234755 L 145.726081 126.204312 L 145.726081 42.0651946 Z M 255.021717 63.0999794 L 218.586952 84.1347419 L 218.586952 126.204312 L 255.021717 105.169527 L 255.021717 63.0999794 Z M 182.156505 147.234755 L 145.726081 168.26954 L 145.726081 210.339088 L 182.156505 189.304303 L 182.156505 147.234755 Z M 145.726081 210.339088 L 109.291294 189.304303 L 109.291294 273.439101 L 145.726081 252.404316 L 145.726081 210.339088 Z" stroke-linecap="round"/>
</g>
		<g transform="matrix(2.9197 0 0 2.9197 -1.4292 -154.3518)">
<path style="stroke: none; stroke-width: 1; stroke-dasharray: none; stroke-linecap: butt; stroke-dashoffset: 0; stroke-linejoin: miter; stroke-miterlimit: 4; is-custom-font: none; font-file-url: none; fill: rgb(248,191,60); fill-rule: nonzero; opacity: 1;" transform=" translate(-127.5109, -84.1348)" d="M 145.726081 -0.0000341864288 L -1.98726454e-7 84.1347419 L 36.4304238 105.169527 L 145.726081 42.0651946 L 218.586952 84.1347419 L 255.021717 63.0999794 L 145.726081 -0.0000341864288 Z M 145.726081 126.204312 L 109.291294 147.234755 L 145.726081 168.26954 L 182.156505 147.234755 L 145.726081 126.204312 Z" stroke-linecap="round"/>
</g>
</g>
</g>
</svg>