<svg xmlns="http://www.w3.org/2000/svg" xmlns:xlink="http://www.w3.org/1999/xlink" version="1.1" width="1080" height="1080" viewBox="0 0 1080 1080" xml:space="preserve">
<desc>Created with Fabric.js 3.5.0</desc>
<defs>
</defs>
<rect x="0" y="0" width="100%" height="100%" fill="#ffffff"/>
<g transform="matrix(1.5828 0 0 1.5828 539.989 539.989)" id="258157">
<g style="" vector-effect="non-scaling-stroke">
		<g transform="matrix(1 0 0 1 -185.245 74.765)" id="_x35_6-linkedin">
<rect style="stroke: none; stroke-width: 1; stroke-dasharray: none; stroke-linecap: butt; stroke-dashoffset: 0; stroke-linejoin: miter; stroke-miterlimit: 4; is-custom-font: none; font-file-url: none; fill: rgb(27,128,228); fill-rule: nonzero; opacity: 1;" x="-53.358" y="-164.485" rx="0" ry="0" width="106.716" height="328.97"/>
</g>
		<g transform="matrix(1 0 0 1 74.565 74.765)" id="_x35_6-linkedin">
<path style="stroke: none; stroke-width: 1; stroke-dasharray: none; stroke-linecap: butt; stroke-dashoffset: 0; stroke-linejoin: miter; stroke-miterlimit: 4; is-custom-font: none; font-file-url: none; fill: rgb(27,128,228); fill-rule: nonzero; opacity: 1;" transform=" translate(-330.565, -330.765)" d="M 414.789 170.138 c -1.133 -0.355 -2.207 -0.743 -3.396 -1.078 c -1.438 -0.327 -2.865 -0.6 -4.328 -0.833 c -5.662 -1.139 -11.875 -1.946 -19.148 -1.946 c -62.211 0 -101.678 45.372 -114.674 62.894 V 166.28 H 166.526 v 328.97 h 106.716 V 315.813 c 0 0 80.643 -112.628 114.674 -29.911 V 495.25 h 106.688 V 273.257 C 494.604 223.549 460.629 182.13 414.789 170.138 L 414.789 170.138 z M 414.789 170.138" stroke-linecap="round"/>
</g>
		<g transform="matrix(1 0 0 1 -186.4065 -186.914)" id="_x35_6-linkedin">
<path style="stroke: none; stroke-width: 1; stroke-dasharray: none; stroke-linecap: butt; stroke-dashoffset: 0; stroke-linejoin: miter; stroke-miterlimit: 4; is-custom-font: none; font-file-url: none; fill: rgb(27,128,228); fill-rule: nonzero; opacity: 1;" transform=" translate(-69.5935, -69.086)" d="M 121.789 69.085 c 0 28.909 -23.373 52.337 -52.195 52.337 c -28.824 0 -52.196 -23.429 -52.196 -52.337 c 0 -28.903 23.372 -52.335 52.196 -52.335 C 98.416 16.75 121.789 40.182 121.789 69.085 L 121.789 69.085 z M 121.789 69.085" stroke-linecap="round"/>
</g>
</g>
</g>
</svg>