<svg xmlns="http://www.w3.org/2000/svg" xmlns:xlink="http://www.w3.org/1999/xlink" version="1.1" width="1000" height="1000" viewBox="0 0 1000 1000" xml:space="preserve">
<desc>Created with Fabric.js 3.5.0</desc>
<defs>
</defs>
<rect x="0" y="0" width="100%" height="100%" fill="#ffffff"/>
<g transform="matrix(1.9478 0 0 1.8962 455.6179 500.0004)" id="807655">
<path style="stroke: none; stroke-width: 1; stroke-dasharray: none; stroke-linecap: butt; stroke-dashoffset: 0; stroke-linejoin: miter; stroke-miterlimit: 4; is-custom-font: none; font-file-url: none; fill: rgb(0,0,0); fill-rule: nonzero; opacity: 1;" vector-effect="non-scaling-stroke" transform=" translate(-255.9995, -256)" d="M 139.375 254.855 c 0 24.248 -19.651 43.907 -43.899 43.907 c -24.265 0 -43.916 -19.659 -43.916 -43.907 c 0 -24.249 19.651 -43.916 43.916 -43.916 C 119.724 210.939 139.375 230.606 139.375 254.855 z M 291.234 149.774 c 52.07 0 94.977 39.206 100.832 89.711 l 68.221 -2.073 c -3.023 -37.255 -18.08 -71.107 -41.279 -97.661 c -9.967 7.056 -22.135 11.201 -35.264 11.201 c -33.723 0 -61.043 -27.329 -61.043 -61.036 c 0 -1.79 0.072 -3.54 0.217 -5.274 c -10.266 -1.943 -20.854 -2.967 -31.684 -2.967 c -27.127 0 -52.761 6.378 -75.494 17.7 l 33.716 59.374 C 262.205 152.992 276.342 149.774 291.234 149.774 z M 383.744 133.816 c 24.248 0 43.9 -19.652 43.9 -43.9 c 0 -24.256 -19.652 -43.916 -43.9 -43.916 c -24.256 0 -43.908 19.66 -43.908 43.916 C 339.836 114.164 359.488 133.816 383.744 133.816 z M 386.025 378.176 c -24.248 0 -43.898 19.66 -43.898 43.908 c 0 24.256 19.65 43.916 43.898 43.916 c 24.258 0 43.916 -19.66 43.916 -43.916 C 429.941 397.836 410.283 378.176 386.025 378.176 z M 189.718 251.299 c 0 -32.441 15.209 -61.334 38.9 -79.922 l -36.207 -57.938 c -30.336 21.78 -53.189 53.326 -63.962 90.033 c 16.886 10.862 28.062 29.82 28.062 51.384 c 0 20.771 -10.37 39.117 -26.215 50.141 c 11.596 34.779 34.159 64.56 63.583 85.219 l 33.651 -59.874 C 204.467 311.729 189.718 283.248 189.718 251.299 z M 386.025 361.04 c 10.209 0 19.846 2.517 28.297 6.943 c 26.297 -27.748 43.336 -64.351 46.117 -104.879 l -68.221 -1.347 c -5.24 51.157 -48.455 91.058 -100.984 91.058 c -14.562 0 -28.4 -3.073 -40.923 -8.597 l -33.909 59.334 c 22.571 11.121 47.973 17.37 74.833 17.37 c 11.613 0 22.959 -1.186 33.926 -3.403 C 327.49 385.934 353.852 361.04 386.025 361.04 z" stroke-linecap="round"/>
</g>
</svg>