<svg xmlns="http://www.w3.org/2000/svg" xmlns:xlink="http://www.w3.org/1999/xlink" version="1.1" width="940" height="788" viewBox="0 0 940 788" xml:space="preserve">
<desc>Created with Fabric.js 3.5.0</desc>
<defs>
</defs>
<rect x="0" y="0" width="100%" height="100%" fill="#ffffff"/>
<g transform="matrix(0.6677 0 0 0.6677 469.9815 393.9801)" id="350474">
<path style="stroke: none; stroke-width: 1; stroke-dasharray: none; stroke-linecap: butt; stroke-dashoffset: 0; stroke-linejoin: miter; stroke-miterlimit: 4; is-custom-font: none; font-file-url: none; fill: rgb(0,0,0); fill-rule: nonzero; opacity: 1;" vector-effect="non-scaling-stroke" transform=" translate(-423.33, -423.33)" d="M 57.69 10.3 l 586.02 0 c 11.4 0 20.65 9.24 20.65 20.64 l 0 86.43 l 124.61 0 c 11.4 0 20.64 9.24 20.64 20.64 l 0 677.71 c 0 11.4 -9.24 20.64 -20.64 20.64 l -586.02 0 c -11.4 0 -20.65 -9.24 -20.65 -20.64 l 0 -86.43 l -124.61 0 c -11.4 0 -20.64 -9.24 -20.64 -20.64 l 0 -677.71 c 0 -11.4 9.24 -20.64 20.64 -20.64 z m 606.67 148.36 l 0 549.99 c 0 11.4 -9.25 20.64 -20.65 20.64 l -420.11 0 l 0 65.78 l 544.72 0 l 0 -636.41 l -103.96 0 z m -375.67 176.69 c -5.31 26.52 -45.63 18.46 -40.33 -8.06 c 5.33 -26.52 20.73 -49.83 42.89 -65.22 c -1.02 -1.32 -2 -2.68 -2.93 -4.07 c -8.05 -12.01 -12.75 -26.38 -12.75 -41.76 c 0 -41.49 33.64 -75.13 75.13 -75.13 c 41.49 0 75.13 33.64 75.13 75.13 c 0 16.64 -5.53 32.68 -15.68 45.83 c 22.17 15.38 37.57 38.7 42.89 65.22 c 5.3 26.52 -35.02 34.58 -40.32 8.06 c -4.36 -21.68 -20.08 -39.68 -40.91 -47.03 c -6.82 2.03 -13.99 3.06 -21.11 3.06 c -7.1 0 -14.29 -1.03 -21.11 -3.06 c -20.83 7.35 -36.55 25.34 -40.9 47.03 z m 62.01 -85.26 c 18.93 0 33.84 -15.08 33.84 -33.85 c 0 -18.69 -15.15 -33.84 -33.84 -33.84 c -18.69 0 -33.84 15.15 -33.84 33.84 c 0 18.93 15.09 33.85 33.84 33.85 z m -151.48 198.89 c -27.16 0 -27.16 -41.29 0 -41.29 l 302.97 0 c 27.16 0 27.16 41.29 0 41.29 l -302.97 0 z m 0 149.5 c -27.16 0 -27.16 -41.29 0 -41.29 l 302.97 0 c 27.16 0 27.16 41.29 0 41.29 l -302.97 0 z m 0 -74.75 c -27.16 0 -27.16 -41.29 0 -41.29 l 302.97 0 c 27.16 0 27.16 41.29 0 41.29 l -302.97 0 z m 423.84 -472.14 l -544.72 0 l 0 636.41 l 544.72 0 l 0 -636.41 z" stroke-linecap="round"/>
</g>
</svg>